<?xml version="1.0" encoding="utf-8"?>
<!-- Generator: Adobe Illustrator 16.2.1, SVG Export Plug-In . SVG Version: 6.00 Build 0)  -->
<!DOCTYPE svg PUBLIC "-//W3C//DTD SVG 1.1//EN" "http://www.w3.org/Graphics/SVG/1.1/DTD/svg11.dtd">
<svg version="1.1" id="Calque_1" xmlns="http://www.w3.org/2000/svg" xmlns:xlink="http://www.w3.org/1999/xlink" x="0px" y="0px"
	 width="16px" height="16px" viewBox="0 0 16 16" enable-background="new 0 0 16 16" xml:space="preserve">
<g>
	<path fill="#534840" d="M15,7c-0.553,0-1,0.448-1,1v6H2V8c0-0.552-0.447-1-1-1S0,7.448,0,8v7c0,0.553,0.447,1,1,1h14
		c0.553,0,1-0.447,1-1V8C16,7.448,15.553,7,15,7z"/>
	<path fill="#534840" d="M8,12l4-5H9V1c0-0.552-0.447-1-1-1S7,0.448,7,1v6H4L8,12z"/>
</g>
</svg>
