<?xml version="1.0" encoding="utf-8"?>
<!-- Generator: Adobe Illustrator 17.1.0, SVG Export Plug-In . SVG Version: 6.00 Build 0)  -->
<!DOCTYPE svg PUBLIC "-//W3C//DTD SVG 1.1//EN" "http://www.w3.org/Graphics/SVG/1.1/DTD/svg11.dtd">
<svg version="1.1" id="Calque_1" xmlns="http://www.w3.org/2000/svg" xmlns:xlink="http://www.w3.org/1999/xlink" x="0px" y="0px"
	 viewBox="0 0 32 32" enable-background="new 0 0 32 32" xml:space="preserve">
<g>
	<path fill="#A5907C" d="M20.2,9.8l-2.8,12.9c-0.2,0.7-0.3,1.4-0.4,2c-0.1,0.6-0.2,1.2-0.2,1.8c0,0.6,0.1,1,0.4,1.3
		c0.2,0.3,0.6,0.5,1,0.5c0.4,0,0.8-0.1,1.1-0.2c0.3-0.2,0.8-0.4,1.2-0.7l1,1.3c-0.3,0.3-0.7,0.7-1.1,1c-0.4,0.3-0.9,0.6-1.4,0.9
		c-0.5,0.3-1.1,0.5-1.7,0.6c-0.6,0.2-1.3,0.2-2,0.2c-1.5,0-2.7-0.4-3.5-1.1c-0.8-0.7-1.2-1.7-1.2-3c0-0.6,0.1-1.2,0.2-2
		c0.1-0.8,0.3-1.7,0.5-2.7l1.6-7.4c0-0.2,0.1-0.3,0.1-0.5c0-0.2,0.1-0.4,0.1-0.5c0-0.2,0-0.3,0.1-0.4c0-0.1,0-0.2,0-0.3
		c0-0.4,0-0.7-0.1-0.9s-0.2-0.4-0.4-0.5S12.4,12,12.1,12c-0.3,0-0.6-0.1-1-0.1h-0.7l0.3-2.1H20.2z M17.4,6.2c-0.4,0-0.8,0-1.2-0.1
		c-0.4-0.1-0.7-0.2-1-0.5c-0.3-0.2-0.5-0.5-0.7-0.8c-0.2-0.3-0.2-0.7-0.2-1.1c0-0.6,0.1-1.1,0.3-1.5c0.2-0.4,0.5-0.7,0.8-1
		c0.3-0.3,0.7-0.5,1.2-0.6s0.9-0.2,1.4-0.2c0.4,0,0.8,0,1.2,0.1c0.4,0.1,0.7,0.2,1,0.4c0.3,0.2,0.5,0.5,0.7,0.8
		c0.2,0.3,0.3,0.7,0.3,1.1c0,0.5-0.1,1-0.3,1.4c-0.2,0.4-0.5,0.7-0.9,1c-0.4,0.3-0.8,0.5-1.2,0.6S17.9,6.2,17.4,6.2z"/>
</g>
</svg>
