<?xml version="1.0" encoding="utf-8"?>
<!-- Generator: Adobe Illustrator 18.1.1, SVG Export Plug-In . SVG Version: 6.00 Build 0)  -->
<svg version="1.1" id="Calque_1" xmlns="http://www.w3.org/2000/svg" xmlns:xlink="http://www.w3.org/1999/xlink" x="0px" y="0px"
	 viewBox="0 0 32 32" enable-background="new 0 0 32 32" xml:space="preserve">
<g id="Your_Icon_5_">
	<path id="refresh-3-icon" d="M24.8,7.5L22,10.3c-1.5-1.5-3.6-2.5-5.9-2.5c-4.6,0-8.4,3.8-8.4,8.4c0,0,0,0,0,0h3.3l-5.2,5.2
		l-5.2-5.2h3.2c0,0,0,0,0,0c0-6.8,5.5-12.4,12.4-12.4C19.5,3.8,22.6,5.2,24.8,7.5z M31.5,15.8l-5.2-5.2l-5.2,5.2h3.3c0,0,0,0,0,0
		c0,4.6-3.8,8.4-8.4,8.4c-2.3,0-4.4-0.9-5.9-2.5l-2.8,2.8c2.2,2.2,5.3,3.6,8.7,3.6c6.8,0,12.4-5.5,12.4-12.4c0,0,0,0,0,0L31.5,15.8
		L31.5,15.8z"/>
</g>
</svg>
