<?xml version="1.0" encoding="utf-8"?>
<!-- Generator: Adobe Illustrator 17.1.0, SVG Export Plug-In . SVG Version: 6.00 Build 0)  -->
<!DOCTYPE svg PUBLIC "-//W3C//DTD SVG 1.1//EN" "http://www.w3.org/Graphics/SVG/1.1/DTD/svg11.dtd">
<svg version="1.1" id="Calque_1" xmlns="http://www.w3.org/2000/svg" xmlns:xlink="http://www.w3.org/1999/xlink" x="0px" y="0px"
	 viewBox="0 0 32 32" enable-background="new 0 0 32 32" xml:space="preserve">
<path fill="#FF9D07" d="M15.9,25.6l8.2,4.6c0.2,0.1,0.4,0.1,0.6,0c0.2-0.1,0.3-0.4,0.2-0.6L23.4,20l6.7-6.7c0.2-0.2,0.2-0.4,0.2-0.6
	c-0.1-0.2-0.3-0.4-0.5-0.4l-9.2-1.5l-4-8.8c-0.1-0.2-0.4-0.3-0.6-0.3L15.9,25.6z M24.3,31.5c-0.3,0-0.6-0.1-0.8-0.2L15.8,27
	l-7.8,4.2c-0.6,0.3-1.3,0.2-1.8-0.2c-0.5-0.4-0.8-1.1-0.7-1.7l1.6-9L1,13.8c-0.5-0.5-0.6-1.2-0.4-1.8c0.2-0.6,0.7-1.1,1.4-1.2
	l8.7-1.2l4-8.1c0.3-0.6,0.9-1,1.5-1c0.7,0,1.2,0.4,1.5,1l3.8,8.2l8.6,1.4c0.6,0.1,1.2,0.6,1.4,1.2c0.2,0.6,0,1.3-0.4,1.8l-6.3,6.3
	l1.4,9c0.1,0.7-0.1,1.3-0.7,1.7C25,31.4,24.7,31.5,24.3,31.5"/>
</svg>
