<?xml version="1.0" encoding="utf-8"?>
<!-- Generator: Adobe Illustrator 19.1.0, SVG Export Plug-In . SVG Version: 6.00 Build 0)  -->
<svg version="1.1" id="Layer_1" xmlns="http://www.w3.org/2000/svg" xmlns:xlink="http://www.w3.org/1999/xlink" x="0px" y="0px"
	 viewBox="0 0 32 32" style="enable-background:new 0 0 32 32;" xml:space="preserve">
<style type="text/css">
	.st0{fill:#534741;}
</style>
<g>
	<path class="st0" d="M30.5,15h-1.7C28.2,9,23,3.7,17,3.1V1.5C17,0.7,16.3,0,15.5,0S14,0.7,14,1.5v1.6C8,3.8,3.7,9,3,15H1.5
		C0.6,15,0,15.7,0,16.5C0,17.3,0.6,18,1.5,18H3c0.7,5,5,10.2,11,10.9v1.6c0,0.8,0.7,1.5,1.5,1.5s1.5-0.7,1.5-1.5v-1.6
		C23,28.2,28.2,23,28.9,18h1.7c0.8,0,1.5-0.7,1.5-1.5C32,15.7,31.4,15,30.5,15z M24.5,18h1.2c-0.7,4-3.8,7.2-8.8,7.8v-1.3
		c0-0.8-0.7-1.5-1.5-1.5S14,23.7,14,24.5v1.4C10,25.2,6.7,22,6,18h1.4C8.3,18,9,17.3,9,16.5C9,15.7,8.3,15,7.5,15H6
		c0.6-5,4-8.3,8-8.9v1.4C14,8.3,14.7,9,15.5,9S17,8.3,17,7.5V6.1c5,0.7,8.1,3.9,8.8,8.9h-1.2c-0.8,0-1.5,0.7-1.5,1.5
		C23,17.3,23.7,18,24.5,18z"/>
	<circle class="st0" cx="15.9" cy="16" r="2.2"/>
</g>
</svg>
