<?xml version="1.0" encoding="utf-8"?>
<!-- Generator: Adobe Illustrator 16.2.1, SVG Export Plug-In . SVG Version: 6.00 Build 0)  -->
<!DOCTYPE svg PUBLIC "-//W3C//DTD SVG 1.1//EN" "http://www.w3.org/Graphics/SVG/1.1/DTD/svg11.dtd">
<svg version="1.1" id="Calque_1" xmlns="http://www.w3.org/2000/svg" xmlns:xlink="http://www.w3.org/1999/xlink" x="0px" y="0px"
	 width="16px" height="16px" viewBox="0 0 16 16" enable-background="new 0 0 16 16" xml:space="preserve">
<g>
	<polygon fill="#564940" points="4,2 4,3 12,3 12,2 13,2 13,3 16,3 16,0 0,0 0,3 3,3 3,2 	"/>
	<path fill="#564940" d="M10.49,10.385c-0.607,0-0.959,0.336-0.959,0.808v0.016c0,0.472,0.367,0.832,0.976,0.832
		c0.607,0,0.96-0.344,0.96-0.824V11.2C11.467,10.729,11.099,10.385,10.49,10.385z"/>
	<path fill="#564940" d="M12,5V4H4v1H3V4H0v12h16V4h-3v1H12z M7,9.065c0,0.936-0.311,1.432-1.302,2.199L4.955,12H7v1H3v-0.977
		l1.989-1.526c0.695-0.576,1.03-0.88,1.03-1.344c0-0.471-0.28-0.727-0.72-0.727c-0.432,0-0.712,0.24-1.128,0.751L3.316,8.482
		C3.868,7.73,4.239,7.323,5.238,7.323C6.397,7.323,7,8.002,7,9.05V9.065z M13,11.16c0,1.144-1.075,1.935-2.29,1.935
		c-0.728,0-1.438-0.208-1.831-0.6C8.472,12.088,8,11.488,8,10.377V10.36c0-1.727,0.922-3.054,2.593-3.054
		c0.76,0,1.324,0.224,1.819,0.616L11.8,8.874c-0.367-0.28-0.647-0.447-1.127-0.447c-0.839,0-1.078,0.807-1.118,1.294
		c0.296-0.199,0.808-0.359,1.319-0.359c1.111,0,2.126,0.615,2.126,1.783V11.16z"/>
</g>
</svg>
