<?xml version="1.0" encoding="utf-8"?>
<!-- Generator: Adobe Illustrator 17.1.0, SVG Export Plug-In . SVG Version: 6.00 Build 0)  -->
<!DOCTYPE svg PUBLIC "-//W3C//DTD SVG 1.1//EN" "http://www.w3.org/Graphics/SVG/1.1/DTD/svg11.dtd">
<svg version="1.1" id="Calque_1" xmlns="http://www.w3.org/2000/svg" xmlns:xlink="http://www.w3.org/1999/xlink" x="0px" y="0px"
	 viewBox="0 0 32 32" enable-background="new 0 0 32 32" xml:space="preserve">
<path id="Clip_37_" fill="#A6917D" d="M4.5,30.5c2.3,1.7,5.6,1.1,7.2-1.2l13.1-18.3c1.2-1.7,0.8-4-0.9-5.2c-1.7-1.2-4-0.8-5.2,0.8
	L9.5,19.7l1.2,0.9L20,7.6l0,0c0.7-1,2.1-1.2,3.1-0.5c1,0.7,1.2,2.1,0.5,3.1l0,0L10.5,28.5l0,0l0,0c-1.2,1.7-3.5,2-5.2,0.9
	c-1.6-1.2-2-3.5-0.8-5.2v0l14.3-20l0,0c1.7-2.3,4.9-2.9,7.2-1.2c2.3,1.7,2.9,4.9,1.2,7.2L16.8,24.7l1.2,0.9L28.5,11
	c2.1-3,1.5-7.2-1.5-9.3c-3-2.1-7.2-1.5-9.3,1.5l-14.3,20C1.6,25.6,2.1,28.9,4.5,30.5z"/>
</svg>
