<?xml version="1.0" encoding="utf-8"?>
<!-- Generator: Adobe Illustrator 17.1.0, SVG Export Plug-In . SVG Version: 6.00 Build 0)  -->
<!DOCTYPE svg PUBLIC "-//W3C//DTD SVG 1.1//EN" "http://www.w3.org/Graphics/SVG/1.1/DTD/svg11.dtd">
<svg version="1.1" id="Calque_1" xmlns="http://www.w3.org/2000/svg" xmlns:xlink="http://www.w3.org/1999/xlink" x="0px" y="0px"
	 viewBox="0 0 32 32" enable-background="new 0 0 32 32" xml:space="preserve">
<g>
	<path fill="#00A79D" d="M16,14c-2.2,0-4,1.8-4,4s1.8,4,4,4s4-1.8,4-4S18.2,14,16,14z"/>
	<path fill="#00A79D" d="M27.5,8.1h-4.6c0-2.2-1.8-4-4-4h-5.6c-2.2,0-4,1.8-4,4H4.5c-2.2,0-4,1.8-4,4v11.8c0,2.2,1.8,4,4,4h22.9
		c2.2,0,4-1.8,4-4V12.1C31.5,9.9,29.7,8.1,27.5,8.1z M16,25.1c-3.9,0-7.1-3.2-7.1-7.1s3.2-7.1,7.1-7.1s7.1,3.2,7.1,7.1
		S19.9,25.1,16,25.1z"/>
</g>
</svg>
