<?xml version="1.0" encoding="utf-8"?>
<!-- Generator: Adobe Illustrator 17.1.0, SVG Export Plug-In . SVG Version: 6.00 Build 0)  -->
<!DOCTYPE svg PUBLIC "-//W3C//DTD SVG 1.1//EN" "http://www.w3.org/Graphics/SVG/1.1/DTD/svg11.dtd">
<svg version="1.1" id="Calque_1" xmlns="http://www.w3.org/2000/svg" xmlns:xlink="http://www.w3.org/1999/xlink" x="0px" y="0px"
	 viewBox="0 0 32 32" enable-background="new 0 0 32 32" xml:space="preserve">
<g>
	<path fill="#A6917D" d="M24.3,24.9c0,0.7-0.6,1.3-1.4,1.3H4.8c-0.8,0-1.4-0.6-1.4-1.3V7.1c0-0.7,0.6-1.3,1.4-1.3h17.1l3.7-2.9
		c0,0-0.1,0-0.1,0H2.3c-1,0-1.8,0.8-1.8,1.7v22.8c0,1,0.8,1.7,1.8,1.7h23.3c1,0,1.8-0.8,1.8-1.7V14.6l-3,2.3L24.3,24.9z"/>
	<polygon fill="#A6917D" points="28.4,3.2 27.1,4.5 30.2,7.6 31.5,6.4 	"/>
	<polygon fill="#A6917D" points="13.2,17.4 16.3,20.5 28.9,8.6 25.9,5.5 	"/>
	<polygon fill="#A6917D" points="10.5,22.8 13.6,22.9 13.6,22.9 14.7,21.9 11.7,18.8 11.7,18.8 10.5,19.8 	"/>
</g>
</svg>
