<?xml version="1.0" encoding="utf-8"?>
<!-- Generator: Adobe Illustrator 16.2.1, SVG Export Plug-In . SVG Version: 6.00 Build 0)  -->
<!DOCTYPE svg PUBLIC "-//W3C//DTD SVG 1.1//EN" "http://www.w3.org/Graphics/SVG/1.1/DTD/svg11.dtd">
<svg version="1.1" id="Calque_1" xmlns="http://www.w3.org/2000/svg" xmlns:xlink="http://www.w3.org/1999/xlink" x="0px" y="0px"
	 width="16px" height="16px" viewBox="0 0 16 16" enable-background="new 0 0 16 16" xml:space="preserve">
<path fill="#9C918A" d="M15,8.859V7.116l-2.086-0.868c-0.057-0.164-0.117-0.323-0.192-0.477l0.841-2.096l-1.233-1.233l-2.077,0.856
	C10.094,3.22,9.933,3.156,9.766,3.096L8.881,1.025H7.137L6.275,3.089C6.102,3.15,5.936,3.215,5.769,3.293L3.697,2.461L2.464,3.693
	l0.845,2.054c-0.082,0.17-0.148,0.341-0.211,0.518l-2.05,0.879v1.744l2.052,0.855c0.063,0.177,0.132,0.351,0.213,0.518l-0.829,2.068
	l1.232,1.232l2.06-0.848c0.166,0.079,0.334,0.142,0.508,0.201l0.882,2.064H8.91l0.864-2.076c0.163-0.061,0.328-0.124,0.485-0.199
	l2.091,0.838l1.232-1.234l-0.857-2.081c0.074-0.157,0.133-0.314,0.189-0.476L15,8.859z M8.009,10.618
	c-1.443,0-2.616-1.173-2.616-2.617c0-1.444,1.172-2.617,2.616-2.617c1.446,0,2.617,1.172,2.617,2.617
	C10.626,9.445,9.455,10.618,8.009,10.618z"/>
</svg>
