<?xml version="1.0" encoding="utf-8"?>
<!-- Generator: Adobe Illustrator 16.2.1, SVG Export Plug-In . SVG Version: 6.00 Build 0)  -->
<!DOCTYPE svg PUBLIC "-//W3C//DTD SVG 1.1//EN" "http://www.w3.org/Graphics/SVG/1.1/DTD/svg11.dtd">
<svg version="1.1" id="Calque_1" xmlns="http://www.w3.org/2000/svg" xmlns:xlink="http://www.w3.org/1999/xlink" x="0px" y="0px"
	 width="16px" height="16px" viewBox="0 0 16 16" enable-background="new 0 0 16 16" xml:space="preserve">
<path fill="#534840" d="M6,16c-0.183,0-0.365-0.05-0.525-0.149C5.18,15.668,5,15.347,5,15V7.362L0.231,1.64
	C-0.017,1.342-0.07,0.927,0.095,0.576C0.259,0.225,0.612,0,1,0h14c0.388,0,0.741,0.225,0.905,0.576
	c0.165,0.352,0.111,0.767-0.137,1.064L11,7.362V13c0,0.379-0.214,0.725-0.553,0.895l-4,2C6.306,15.965,6.153,16,6,16z M3.135,2
	l3.634,4.36C6.918,6.54,7,6.766,7,7v6.382l2-1V7c0-0.234,0.082-0.46,0.231-0.64L12.865,2H3.135z"/>
</svg>
