<?xml version="1.0" encoding="utf-8"?>
<!-- Generator: Adobe Illustrator 16.2.1, SVG Export Plug-In . SVG Version: 6.00 Build 0)  -->
<!DOCTYPE svg PUBLIC "-//W3C//DTD SVG 1.1//EN" "http://www.w3.org/Graphics/SVG/1.1/DTD/svg11.dtd">
<svg version="1.1" id="Calque_1" xmlns="http://www.w3.org/2000/svg" xmlns:xlink="http://www.w3.org/1999/xlink" x="0px" y="0px"
	 width="16px" height="16px" viewBox="0 0 16 16" enable-background="new 0 0 16 16" xml:space="preserve">
<path fill="#9C918A" d="M13.673,8.106c0.253-0.426,0.398-0.931,0.398-1.474c0-1.502-1.13-2.726-2.519-2.726
	c-1.392,0-2.522,1.223-2.522,2.726c0,0.542,0.147,1.047,0.402,1.474C9.26,8.225,9.099,8.36,8.944,8.507l0,0
	c-0.36-0.502-0.786-0.934-1.266-1.274c0.3-0.499,0.472-1.094,0.472-1.73c0-1.766-1.33-3.203-2.962-3.203
	c-1.637,0-2.967,1.438-2.967,3.203c0,0.636,0.177,1.231,0.473,1.73c-1.466,1.037-2.456,3.264-2.456,5.458
	c0,0.387,0.307,1.011,0.684,1.011h7.001H9.45h5.729c0.322,0,0.583-0.575,0.583-0.907C15.762,10.93,14.921,8.985,13.673,8.106z
	 M11.553,5.103c0.747,0,1.358,0.687,1.358,1.53c0,0.356-0.111,0.686-0.293,0.947c-0.246,0.355-0.636,0.585-1.065,0.585
	c-0.435,0-0.818-0.229-1.069-0.585c-0.183-0.261-0.293-0.59-0.293-0.947C10.19,5.79,10.802,5.103,11.553,5.103z M5.188,3.705
	c0.879,0,1.596,0.807,1.596,1.797c0,0.42-0.126,0.806-0.342,1.112C6.147,7.032,5.694,7.3,5.188,7.3
	c-0.511,0-0.965-0.269-1.257-0.686C3.717,6.308,3.589,5.922,3.589,5.502C3.589,4.512,4.306,3.705,5.188,3.705z M7.395,12.148H1.646
	c0.188-2.069,0.965-3.027,2.027-3.658c0.44,0.286,0.96,0.333,1.515,0.333c0.552,0,1.069-0.223,1.514-0.511
	c0.535,0.322,1.054,0.75,1.354,1.378c0.334,0.7,0.668,1.591,0.668,2.458H8.568H7.395z M10.115,12.148
	c-0.056-0.519-0.273-1.754-0.58-2.445c0.004-0.007,0.008-0.07,0.013-0.076c0.213-0.237,0.454-0.466,0.716-0.624
	c0.376,0.245,0.817,0.372,1.289,0.372c0.471,0,0.912-0.019,1.29-0.263c0.898,0.538,1.562,2.002,1.72,3.036H10.115z"/>
</svg>
