<?xml version="1.0" encoding="utf-8"?>
<!-- Generator: Adobe Illustrator 16.2.1, SVG Export Plug-In . SVG Version: 6.00 Build 0)  -->
<!DOCTYPE svg PUBLIC "-//W3C//DTD SVG 1.1//EN" "http://www.w3.org/Graphics/SVG/1.1/DTD/svg11.dtd">
<svg version="1.1" id="Calque_1" xmlns="http://www.w3.org/2000/svg" xmlns:xlink="http://www.w3.org/1999/xlink" x="0px" y="0px"
	 width="16px" height="16px" viewBox="0 0 16 16" enable-background="new 0 0 16 16" xml:space="preserve">
<path fill="#534840" d="M9.414,8l6.293-6.293c0.391-0.391,0.391-1.023,0-1.414s-1.023-0.391-1.414,0L8,6.586L1.707,0.293
	c-0.391-0.391-1.023-0.391-1.414,0s-0.391,1.023,0,1.414L6.586,8l-6.293,6.293C0.098,14.488,0,14.744,0,15s0.098,0.512,0.293,0.707
	c0.391,0.391,1.023,0.391,1.414,0L8,9.414l6.293,6.293C14.488,15.902,14.744,16,15,16s0.512-0.098,0.707-0.293
	c0.391-0.391,0.391-1.023,0-1.414L9.414,8z"/>
</svg>
