<?xml version="1.0" encoding="utf-8"?>
<!-- Generator: Adobe Illustrator 16.2.1, SVG Export Plug-In . SVG Version: 6.00 Build 0)  -->
<!DOCTYPE svg PUBLIC "-//W3C//DTD SVG 1.1//EN" "http://www.w3.org/Graphics/SVG/1.1/DTD/svg11.dtd">
<svg version="1.1" id="Calque_1" xmlns="http://www.w3.org/2000/svg" xmlns:xlink="http://www.w3.org/1999/xlink" x="0px" y="0px"
	 width="16px" height="16px" viewBox="0 0 16 16" enable-background="new 0 0 16 16" xml:space="preserve">
<g>
	<path fill="#534840" d="M15.022,11.374l-0.887-1.836c0,0,2.091-2.859,0.887-5.071c-1.07-1.97-2.844-3.914-7.622-2.538
		C3.105,3.167,3.969,7.141,5.443,8.737c1.488,1.609,4.255,2.608,7.23,1.502C12.806,10.213,15.022,11.374,15.022,11.374"/>
	<path fill="#534840" d="M2.572,6.419c0,0,0.183,5.816,6.864,5.816c-1.381,1.673-4.567,2.294-6.185,1.485
		c-1.435,0.915-2.036,0.809-2.036,0.809l0.442-1.808C1.657,12.722-1.239,9.021,2.572,6.419"/>
</g>
</svg>
