<?xml version="1.0" encoding="utf-8"?>
<!-- Generator: Adobe Illustrator 16.2.1, SVG Export Plug-In . SVG Version: 6.00 Build 0)  -->
<!DOCTYPE svg PUBLIC "-//W3C//DTD SVG 1.1//EN" "http://www.w3.org/Graphics/SVG/1.1/DTD/svg11.dtd">
<svg version="1.1" id="Calque_1" xmlns="http://www.w3.org/2000/svg" xmlns:xlink="http://www.w3.org/1999/xlink" x="0px" y="0px"
	 width="16px" height="16px" viewBox="0 0 16 16" enable-background="new 0 0 16 16" xml:space="preserve">
<path fill="#534840" d="M15,9c0.553,0,1-0.447,1-1s-0.447-1-1-1H5V5h10c0.553,0,1-0.447,1-1s-0.447-1-1-1H1C0.447,3,0,3.447,0,4
	s0.447,1,1,1h2v3c0,0.553,0.447,1,1,1h3v3c0,0.553,0.447,1,1,1h7c0.553,0,1-0.447,1-1s-0.447-1-1-1H9V9H15z"/>
</svg>
