<?xml version="1.0" encoding="utf-8"?>
<!-- Generator: Adobe Illustrator 17.1.0, SVG Export Plug-In . SVG Version: 6.00 Build 0)  -->
<!DOCTYPE svg PUBLIC "-//W3C//DTD SVG 1.1//EN" "http://www.w3.org/Graphics/SVG/1.1/DTD/svg11.dtd">
<svg version="1.1" id="Calque_1" xmlns="http://www.w3.org/2000/svg" xmlns:xlink="http://www.w3.org/1999/xlink" x="0px" y="0px"
	 viewBox="0 0 32 32" enable-background="new 0 0 32 32" xml:space="preserve">
<path fill="#E45028" d="M31.1,25.7L18.3,3.6c-1-1.8-3.6-1.8-4.7,0L0.9,25.7c-1,1.8,0.3,4,2.3,4h25.6C30.9,29.8,32.2,27.5,31.1,25.7z
	 M17.6,25.9c-0.4,0.4-0.9,0.5-1.6,0.5c-0.7,0-1.3-0.2-1.6-0.5c-0.4-0.4-0.6-0.9-0.6-1.5c0-0.6,0.2-1.1,0.6-1.5
	c0.4-0.4,0.9-0.5,1.7-0.5c0.7,0,1.3,0.2,1.6,0.5c0.4,0.4,0.6,0.9,0.6,1.5C18.2,25,18,25.5,17.6,25.9z M17.8,19.3h-3.5l-0.5-8.7h4.6
	L17.8,19.3z"/>
</svg>
